<?xml version="1.0" standalone="no"?><!DOCTYPE svg PUBLIC "-//W3C//DTD SVG 1.1//EN" "http://www.w3.org/Graphics/SVG/1.1/DTD/svg11.dtd"><svg width="100%" height="100%" viewBox="0 0 122 122" version="1.1" xmlns="http://www.w3.org/2000/svg" xmlns:xlink="http://www.w3.org/1999/xlink" xml:space="preserve" style="fill-rule:evenodd;clip-rule:evenodd;stroke-linejoin:round;stroke-miterlimit:1.41421;"><path d="M121.44,80.27l-28.393,0l-10.953,40.878l28.393,0l10.953,-40.878Z" style="fill:#fc2792;"/><path d="M111.984,115.561l-28.393,0l-1.497,5.587l28.393,0l1.497,-5.587Z" style="fill:#b00046;"/><path d="M80.393,80.27l-28.393,0l-10.953,40.878l28.393,0l10.953,-40.878Z" style="fill:#00a1d2;"/><path d="M70.937,115.561l-28.393,0l-1.497,5.587l28.393,0l1.497,-5.587Z" style="fill:#005586;"/><path d="M39.346,80.27l-28.393,0l-10.953,40.878l28.393,0l10.953,-40.878Z" style="fill:#bcff50;"/><path d="M29.89,115.561l-28.393,0l-1.497,5.587l28.393,0l1.497,-5.587Z" style="fill:#70b304;"/><g><path d="M8.448,0l-2.688,0c-4.032,0 -5.76,1.056 -5.76,3.072l0,66.432c0,2.016 1.728,3.072 5.76,3.072l2.688,0c4.032,0 5.76,-1.056 5.76,-3.072l0,-30.816c1.152,-2.208 3.744,-5.568 7.68,-5.568c4.224,0 6.144,2.208 6.144,5.952l0,30.432c0,2.016 1.728,3.072 5.76,3.072l2.688,0c4.032,0 5.76,-1.056 5.76,-3.072l0,-32.544c0,-10.656 -4.896,-15.552 -14.496,-15.552c-5.76,0 -10.56,2.976 -13.536,6.528l0,-24.864c0,-2.016 -1.728,-3.072 -5.76,-3.072Z" style="fill:#fff;fill-rule:nonzero;"/><path d="M62.4,0l-2.688,0c-4.032,0 -5.76,1.056 -5.76,3.072l0,54.528c0,10.656 4.992,15.552 14.016,15.552c2.976,0 9.216,-0.288 9.216,-4.704c0,-0.768 -1.056,-6.912 -2.976,-6.912c-0.576,0 -1.728,0.384 -2.592,0.384c-2.496,0 -3.456,-1.248 -3.456,-4.128l0,-54.72c0,-2.016 -1.728,-3.072 -5.76,-3.072Z" style="fill:#fff;fill-rule:nonzero;"/><path d="M105.12,21.408c-17.184,0 -24.672,9.12 -24.672,26.208c0,17.184 7.776,25.536 24.192,25.536c3.168,0 16.8,-1.344 16.8,-6.72c0,-1.92 -2.88,-7.296 -4.992,-7.296c-0.384,0 -0.96,0.288 -1.728,0.576c-1.824,0.864 -4.896,2.208 -9.408,2.208c-7.296,0 -10.272,-4.8 -10.272,-14.688c0,-9.792 3.168,-14.592 10.848,-14.592c4.032,0 6.624,1.248 8.352,2.112c0.768,0.384 1.344,0.672 1.728,0.672c1.632,0 5.088,-5.568 5.088,-7.392c0,-4.416 -9.12,-6.624 -15.936,-6.624Z" style="fill:#fff;fill-rule:nonzero;"/></g></svg>